<?xml version="1.0" encoding="iso-8859-1"?>
<!-- Generator: Adobe Illustrator 16.0.0, SVG Export Plug-In . SVG Version: 6.00 Build 0)  -->
<!DOCTYPE svg PUBLIC "-//W3C//DTD SVG 1.1//EN" "http://www.w3.org/Graphics/SVG/1.1/DTD/svg11.dtd">
<svg version="1.1" id="&#x5716;&#x5C64;_1" xmlns="http://www.w3.org/2000/svg" xmlns:xlink="http://www.w3.org/1999/xlink" x="0px"
	 y="0px" width="45px" height="30px" viewBox="0 0 45 30" style="enable-background:new 0 0 45 30;" xml:space="preserve">
<g>
	<g>
		<path style="fill-rule:evenodd;clip-rule:evenodd;fill:#FFFFFF;" d="M45.108,30.236c-15.019,0-30.036,0-45.054,0
			c0-10.121,0-20.241,0-30.362c15.018,0,30.036,0,45.054,0C45.108,9.995,45.108,20.115,45.108,30.236z M7.702,2.359
			c0.03,0.106,0.048,0.184,0.073,0.26C8.166,3.81,8.557,5.001,8.948,6.192c1.482,4.515,2.967,9.03,4.44,13.548
			c0.084,0.257,0.201,0.321,0.454,0.317c1.139-0.013,2.277-0.005,3.416-0.005c0.098,0,0.196-0.001,0.307-0.001
			c0.787-2.956,1.569-5.894,2.352-8.832c0.07,0.051,0.087,0.098,0.1,0.146c0.34,1.263,0.65,2.535,1.027,3.788
			c0.329,1.092,0.498,2.19,0.431,3.331c-0.029,0.511-0.005,1.025-0.005,1.552c2.018,0,4.009,0,6.027,0c0-0.111,0-0.209,0-0.306
			c0-0.85-0.011-1.699,0.006-2.548c0.005-0.266,0.049-0.54,0.131-0.792c1.427-4.363,2.861-8.723,4.293-13.083
			c0.101-0.305,0.194-0.612,0.301-0.949c-0.625,0-1.212,0.01-1.798-0.005c-0.225-0.006-0.324,0.058-0.395,0.284
			c-1.02,3.271-2.05,6.54-3.079,9.809c-0.019,0.059-0.047,0.115-0.092,0.223c-0.903-3.473-1.791-6.884-2.679-10.295
			c-2.197,0-4.371,0-6.556,0c0.01,0.051,0.014,0.086,0.023,0.12c0.386,1.447,0.775,2.893,1.153,4.342
			c0.039,0.148,0.042,0.323,0.006,0.472c-0.342,1.449-0.694,2.895-1.046,4.341c-0.079,0.324-0.164,0.646-0.246,0.969
			c-1.047-3.334-2.049-6.659-3.041-9.986c-0.062-0.207-0.141-0.281-0.366-0.279c-2.042,0.01-4.084,0.006-6.126,0.006
			C7.898,2.359,7.81,2.359,7.702,2.359z M33.35,2.369c-0.137,0.414-0.271,0.824-0.406,1.234c-1.336,4.068-2.658,8.141-4.019,12.201
			c-0.291,0.869-0.47,1.73-0.412,2.646c0.028,0.449,0.005,0.902,0.006,1.354c0,0.078,0.01,0.155,0.014,0.225
			c3.856,0,7.689,0,11.543,0c0-1.167,0-2.311,0-3.488c1.071,0,2.123,0,3.177,0c0-3.571,0-7.109,0-10.681c-1.063,0-2.114,0-3.194,0
			c0-1.185,0-2.336,0-3.491C37.807,2.369,35.586,2.369,33.35,2.369z M12.36,20.04c-0.015-0.065-0.021-0.118-0.038-0.167
			C10.431,14.107,8.538,8.341,6.65,2.574C6.595,2.405,6.515,2.355,6.343,2.356C5.06,2.362,3.777,2.359,2.494,2.36
			c-0.071,0-0.142,0.008-0.222,0.013c0,5.895,0,11.778,0,17.667C5.646,20.04,8.995,20.04,12.36,20.04z M2.314,22.049
			c0.604,2.281,1.199,4.527,1.792,6.766c0.525,0,1.021,0,1.521,0c0.37-1.505,0.737-2.999,1.123-4.569
			c0.043,0.15,0.065,0.219,0.083,0.288c0.339,1.355,0.683,2.711,1.012,4.069c0.043,0.176,0.109,0.234,0.287,0.228
			c0.343-0.014,0.687-0.013,1.03,0c0.174,0.006,0.245-0.046,0.291-0.224c0.403-1.535,0.82-3.066,1.233-4.6
			c0.173-0.643,0.346-1.286,0.526-1.958c-0.436,0-0.841,0.01-1.246-0.004c-0.182-0.006-0.242,0.058-0.282,0.23
			c-0.312,1.345-0.635,2.686-0.955,4.028c-0.023,0.095-0.049,0.189-0.074,0.284c-0.02-0.003-0.04-0.006-0.06-0.008
			c-0.375-1.509-0.75-3.017-1.124-4.523c-0.479,0-0.93,0-1.403,0c-0.383,1.497-0.766,2.994-1.167,4.562
			c-0.041-0.128-0.063-0.184-0.077-0.242c-0.319-1.37-0.639-2.74-0.956-4.111c-0.027-0.118-0.035-0.224-0.207-0.219
			C3.227,22.057,2.794,22.049,2.314,22.049z M34.873,22.06c0,2.266,0,4.509,0,6.755c0.497,0,0.974,0,1.479,0
			c0-0.874,0-1.738,0-2.636c0.425,0,0.82,0,1.215,0c1.045,0,1.352,0.289,1.413,1.333c0.004,0.063,0.001,0.127,0.009,0.189
			c0.042,0.313,0.077,0.626,0.137,0.936c0.014,0.071,0.113,0.179,0.176,0.181c0.445,0.016,0.893,0.009,1.27,0.009
			c-0.062-0.558-0.127-1.09-0.177-1.624c-0.061-0.662-0.203-1.272-0.92-1.567c0.168-0.116,0.328-0.202,0.455-0.321
			c0.13-0.122,0.259-0.262,0.335-0.419c0.568-1.183,0.041-2.724-1.553-2.82C37.443,21.998,36.167,22.06,34.873,22.06z
			 M30.836,28.814c0-0.426,0-0.82,0-1.245c-1.208,0-2.404,0-3.612,0c0-0.559,0-1.086,0-1.644c1.087,0,2.157,0,3.238,0
			c0-0.403,0-0.777,0-1.179c-1.087,0-2.157,0-3.237,0c0-0.484,0-0.939,0-1.43c1.184,0,2.353,0,3.529,0c0-0.438,0-0.841,0-1.251
			c-1.688,0-3.362,0-5.036,0c0,2.26,0,4.503,0,6.748C27.432,28.814,29.126,28.814,30.836,28.814z M21.712,22.049
			c-0.529,0-0.999,0.007-1.468-0.003c-0.156-0.004-0.24,0.049-0.317,0.183c-0.438,0.758-0.885,1.511-1.33,2.264
			c-0.038,0.064-0.083,0.125-0.135,0.204c-0.394-0.663-0.82-1.275-1.134-1.942c-0.275-0.583-0.644-0.816-1.273-0.712
			c-0.265,0.044-0.543,0.007-0.827,0.007c0.019,0.067,0.02,0.086,0.029,0.101c0.559,0.928,1.073,1.886,1.689,2.773
			c0.583,0.838,0.883,1.706,0.762,2.727c-0.045,0.381-0.008,0.771-0.008,1.156c0.516,0,0.998,0,1.492,0
			c0-0.796-0.005-1.573,0.005-2.349c0.002-0.136,0.042-0.286,0.111-0.403c0.48-0.816,0.974-1.626,1.462-2.438
			C21.077,23.108,21.381,22.601,21.712,22.049z"/>
		<path style="fill-rule:evenodd;clip-rule:evenodd;" d="M7.702,2.359c0.108,0,0.196,0,0.284,0c2.042,0,4.084,0.004,6.126-0.006
			c0.226-0.001,0.305,0.072,0.366,0.279c0.992,3.327,1.994,6.652,3.041,9.986c0.083-0.323,0.167-0.646,0.246-0.969
			c0.352-1.446,0.704-2.892,1.046-4.341c0.036-0.149,0.032-0.323-0.006-0.472c-0.378-1.449-0.767-2.895-1.153-4.342
			c-0.009-0.034-0.013-0.069-0.023-0.12c2.185,0,4.359,0,6.556,0c0.888,3.411,1.775,6.823,2.679,10.295
			c0.045-0.107,0.073-0.164,0.092-0.223c1.029-3.269,2.06-6.537,3.079-9.809c0.07-0.227,0.17-0.29,0.395-0.284
			c0.586,0.015,1.173,0.005,1.798,0.005c-0.106,0.337-0.2,0.644-0.301,0.949c-1.432,4.361-2.866,8.721-4.293,13.083
			c-0.082,0.252-0.126,0.526-0.131,0.792c-0.017,0.849-0.006,1.698-0.006,2.548c0,0.097,0,0.194,0,0.306c-2.019,0-4.01,0-6.027,0
			c0-0.526-0.024-1.041,0.005-1.552c0.066-1.141-0.103-2.239-0.431-3.331c-0.377-1.252-0.688-2.524-1.027-3.788
			c-0.013-0.048-0.03-0.095-0.1-0.146c-0.782,2.938-1.564,5.875-2.352,8.832c-0.111,0-0.209,0.001-0.307,0.001
			c-1.138,0-2.277-0.008-3.416,0.005c-0.253,0.004-0.37-0.061-0.454-0.317c-1.473-4.519-2.958-9.033-4.44-13.548
			C8.557,5.001,8.166,3.81,7.775,2.619C7.75,2.543,7.731,2.465,7.702,2.359z"/>
		<path style="fill-rule:evenodd;clip-rule:evenodd;" d="M33.35,2.369c2.236,0,4.457,0,6.708,0c0,1.155,0,2.306,0,3.491
			c1.08,0,2.131,0,3.194,0c0,3.572,0,7.11,0,10.681c-1.054,0-2.105,0-3.177,0c0,1.178,0,2.321,0,3.488c-3.854,0-7.687,0-11.543,0
			c-0.004-0.069-0.014-0.146-0.014-0.225c-0.001-0.452,0.022-0.905-0.006-1.354c-0.058-0.915,0.121-1.776,0.412-2.646
			c1.36-4.06,2.683-8.133,4.019-12.201C33.078,3.193,33.213,2.783,33.35,2.369z"/>
		<path style="fill-rule:evenodd;clip-rule:evenodd;" d="M12.36,20.04c-3.365,0-6.714,0-10.087,0c0-5.889,0-11.772,0-17.667
			c0.08-0.005,0.15-0.013,0.222-0.013c1.283,0,2.566,0.002,3.849-0.004C6.515,2.355,6.595,2.405,6.65,2.574
			c1.888,5.768,3.781,11.533,5.672,17.299C12.338,19.922,12.345,19.975,12.36,20.04z"/>
		<path style="fill-rule:evenodd;clip-rule:evenodd;" d="M2.314,22.049c0.48,0,0.913,0.008,1.346-0.003
			c0.172-0.005,0.179,0.101,0.207,0.219c0.317,1.371,0.636,2.741,0.956,4.111c0.014,0.059,0.036,0.114,0.077,0.242
			c0.401-1.567,0.784-3.064,1.167-4.562c0.473,0,0.923,0,1.403,0c0.375,1.507,0.749,3.015,1.124,4.523
			c0.02,0.002,0.04,0.005,0.06,0.008c0.025-0.095,0.051-0.189,0.074-0.284c0.32-1.343,0.643-2.684,0.955-4.028
			c0.04-0.173,0.101-0.236,0.282-0.23c0.405,0.014,0.81,0.004,1.246,0.004c-0.18,0.672-0.353,1.315-0.526,1.958
			c-0.413,1.533-0.83,3.064-1.233,4.6c-0.046,0.178-0.117,0.229-0.291,0.224c-0.343-0.013-0.687-0.014-1.03,0
			c-0.177,0.007-0.244-0.052-0.287-0.228c-0.33-1.358-0.673-2.714-1.012-4.069c-0.017-0.069-0.04-0.138-0.083-0.288
			c-0.386,1.57-0.753,3.064-1.123,4.569c-0.5,0-0.996,0-1.521,0C3.513,26.576,2.918,24.33,2.314,22.049z"/>
		<path style="fill-rule:evenodd;clip-rule:evenodd;" d="M34.873,22.06c1.294,0,2.57-0.062,3.839,0.015
			c1.594,0.097,2.121,1.638,1.553,2.82c-0.076,0.157-0.205,0.297-0.335,0.419c-0.127,0.119-0.287,0.205-0.455,0.321
			c0.717,0.295,0.859,0.905,0.92,1.567c0.05,0.534,0.115,1.066,0.177,1.624c-0.377,0-0.824,0.007-1.27-0.009
			c-0.063-0.002-0.162-0.109-0.176-0.181c-0.06-0.31-0.095-0.623-0.137-0.936c-0.008-0.063-0.005-0.127-0.009-0.189
			c-0.062-1.044-0.368-1.333-1.413-1.333c-0.395,0-0.79,0-1.215,0c0,0.897,0,1.762,0,2.636c-0.506,0-0.982,0-1.479,0
			C34.873,26.568,34.873,24.325,34.873,22.06z M36.361,25.092c0.629,0,1.232,0.026,1.831-0.007c0.565-0.032,0.813-0.384,0.789-1.014
			c-0.02-0.519-0.326-0.823-0.866-0.835c-0.515-0.012-1.029-0.004-1.543-0.002c-0.068,0-0.137,0.014-0.211,0.021
			C36.361,23.872,36.361,24.466,36.361,25.092z"/>
		<path style="fill-rule:evenodd;clip-rule:evenodd;" d="M30.836,28.814c-1.71,0-3.404,0-5.118,0c0-2.245,0-4.488,0-6.748
			c1.674,0,3.348,0,5.036,0c0,0.41,0,0.813,0,1.251c-1.177,0-2.346,0-3.529,0c0,0.49,0,0.945,0,1.43c1.08,0,2.15,0,3.237,0
			c0,0.401,0,0.775,0,1.179c-1.081,0-2.151,0-3.238,0c0,0.558,0,1.085,0,1.644c1.208,0,2.404,0,3.612,0
			C30.836,27.994,30.836,28.389,30.836,28.814z"/>
		<path style="fill-rule:evenodd;clip-rule:evenodd;" d="M21.712,22.049c-0.331,0.552-0.636,1.06-0.941,1.567
			c-0.488,0.812-0.981,1.621-1.462,2.438c-0.069,0.117-0.109,0.268-0.111,0.403c-0.01,0.775-0.005,1.553-0.005,2.349
			c-0.494,0-0.976,0-1.492,0c0-0.385-0.038-0.775,0.008-1.156c0.121-1.021-0.18-1.889-0.762-2.727
			c-0.616-0.888-1.131-1.846-1.689-2.773c-0.009-0.015-0.01-0.033-0.029-0.101c0.284,0,0.562,0.037,0.827-0.007
			c0.629-0.104,0.998,0.129,1.273,0.712c0.313,0.667,0.74,1.279,1.134,1.942c0.052-0.079,0.097-0.14,0.135-0.204
			c0.445-0.753,0.893-1.506,1.33-2.264c0.077-0.134,0.162-0.187,0.317-0.183C20.714,22.056,21.184,22.049,21.712,22.049z"/>
		<path style="fill-rule:evenodd;clip-rule:evenodd;fill:#FFFFFF;" d="M36.361,25.092c0-0.626,0-1.22,0-1.836
			c0.074-0.008,0.143-0.021,0.211-0.021c0.514-0.002,1.028-0.01,1.543,0.002c0.54,0.012,0.847,0.316,0.866,0.835
			c0.024,0.63-0.224,0.981-0.789,1.014C37.594,25.118,36.99,25.092,36.361,25.092z"/>
	</g>
</g>
</svg>
